<svg xmlns="http://www.w3.org/2000/svg" viewBox="0 0 1024 1024">
<g fill="none" stroke="black" stroke-width="45" stroke-linecap="round" stroke-linejoin="round">
     <path d="M 409.5 55.5 C 415.17 54.5, 432.83 50.67, 443.5 49.5 C 454.17 48.33, 462.5 47.83, 473.5 48.5 C 484.5 49.17, 498.67 51, 509.5 53.5 C 520.33 56, 533.67 61.83, 538.5 63.5"/>
     <path d="M 409.5 55.5 L 397.5 59.5"/>
     <path d="M 397.5 59.5 L 388.5 63.5"/>
     <path d="M 388.5 63.5 C 382.83 66.67, 365.67 74.17, 354.5 82.5 C 343.33 90.83, 327 108.33, 321.5 113.5"/>
     <path d="M 538.5 63.5 L 549.5 68.5"/>
     <path d="M 549.5 68.5 C 556 72.83, 579.17 87.17, 588.5 94.5 C 597.83 101.83, 599.5 104.67, 605.5 112.5 C 611.5 120.33, 621.33 136.67, 624.5 141.5"/>
     <path d="M 317.5 118.5 L 301.5 143.5"/>
     <path d="M 624.5 141.5 C 626.83 147.5, 635.33 163, 638.5 177.5 C 641.67 192, 643.67 213, 643.5 228.5 C 643.33 244, 641 257.33, 637.5 270.5 C 634 283.67, 629 295.83, 622.5 307.5 C 616 319.17, 609 328.5, 598.5 340.5 C 588 352.5, 580.67 359.83, 559.5 379.5 C 538.33 399.17, 488.67 444.33, 471.5 458.5 C 454.33 472.67, 462.5 460.33, 456.5 464.5 C 450.5 468.67, 442.5 483.83, 435.5 483.5 C 428.5 483.17, 418.33 467.33, 414.5 462.5 C 410.67 457.67, 428.5 476.17, 412.5 454.5 C 396.5 432.83, 337.17 357.83, 318.5 332.5 C 299.83 307.17, 303.5 307.5, 300.5 302.5"/>
     <path d="M 298.5 150.5 C 296.67 155.67, 290.17 169.33, 287.5 181.5 C 284.83 193.67, 282.5 209.5, 282.5 223.5 C 282.5 237.5, 284.5 252.33, 287.5 265.5 C 290.5 278.67, 298.33 296.33, 300.5 302.5"/>
     <path d="M 456.5 464.5 L 436.5 487.5"/>
     <path d="M 436.5 487.5 C 440.17 491.17, 454.5 504.5, 458.5 509.5 C 462.5 514.5, 437.67 487, 460.5 517.5 C 483.33 548, 573 663.33, 595.5 692.5"/>
     <path d="M 436.5 487.5 C 432.83 491.17, 419.67 505.5, 414.5 509.5 C 409.33 513.5, 408.67 509.83, 405.5 511.5 C 402.33 513.17, 397.17 518.17, 395.5 519.5"/>
     <path d="M 383.5 529.5 L 376.5 535.5"/>
     <path d="M 358.5 550.5 L 351.5 556.5"/>
     <path d="M 345.5 561.5 L 331.5 573.5"/>
     <path d="M 839.5 573.5 C 837 584.83, 830.67 619.83, 824.5 641.5 C 818.33 663.17, 808.67 687.83, 802.5 703.5 C 796.33 719.17, 797.67 718.17, 787.5 735.5 C 777.33 752.83, 749.17 795.5, 741.5 807.5"/>
     <path d="M 325.5 578.5 C 313.67 588.83, 271.83 624.67, 254.5 640.5 C 237.17 656.33, 227 668, 221.5 673.5"/>
     <path d="M 217.5 678.5 L 201.5 703.5"/>
     <path d="M 192.5 726.5 C 191.17 735, 184.5 758.67, 184.5 777.5 C 184.5 796.33, 191.17 829.17, 192.5 839.5"/>
     <path d="M 661.5 774.5 L 677.5 794.5"/>
     <path d="M 685.5 804.5 C 688.33 805.83, 697.33 808.83, 702.5 812.5 C 707.67 816.17, 710.83 826.83, 716.5 826.5 C 722.17 826.17, 733.17 813.17, 736.5 810.5"/>
     <path d="M 736.5 810.5 C 733.33 813.67, 720.67 822.33, 717.5 829.5 C 714.33 836.67, 717.5 849.5, 717.5 853.5"/>
     <path d="M 193.5 844.5 L 196.5 852.5"/>
     <path d="M 717.5 853.5 L 741.5 874.5"/>
     <path d="M 717.5 853.5 L 668.5 894.5"/>
     <path d="M 198.5 859.5 L 202.5 868.5"/>
     <path d="M 205.5 875.5 C 207.5 879, 210.5 887.33, 217.5 896.5 C 224.5 905.67, 242.5 924.83, 247.5 930.5"/>
     <path d="M 760.5 896.5 L 770.5 908.5"/>
     <path d="M 652.5 907.5 C 647.33 911.33, 630.5 924.67, 621.5 930.5 C 612.5 936.33, 602.33 940.5, 598.5 942.5"/>
     <path d="M 253.5 935.5 L 279.5 952.5"/>
     <path d="M 598.5 942.5 L 582.5 950.5"/>
     <path d="M 582.5 950.5 L 572.5 954.5"/>
     <path d="M 279.5 952.5 C 286.17 955.17, 304.5 964.67, 319.5 968.5 C 334.5 972.33, 348.17 974.17, 369.5 975.5 C 390.83 976.83, 423.83 977.33, 447.5 976.5 C 471.17 975.67, 500.83 971.5, 511.5 970.5"/>
     <path d="M 572.5 954.5 L 549.5 962.5"/>
     <path d="M 810.5 958.5 L 818.5 968.5"/>
     <path d="M 549.5 962.5 L 511.5 970.5"/>
     <path d="M 575.5 83.5 L 577.5 86.5"/>
     <path d="M 610.5 326.5 L 607.5 328.5"/>
     <path d="M 329.5 348.5 L 332.5 350.5"/>
     <path d="M 332.5 352.5 L 335.5 354.5"/>
     <path d="M 335.5 356.5 L 338.5 358.5"/>
     <path d="M 338.5 360.5 L 341.5 362.5"/>
     <path d="M 341.5 364.5 L 344.5 366.5"/>
     <path d="M 348.5 373.5 L 351.5 375.5"/>
     <path d="M 355.5 382.5 L 358.5 384.5"/>
     <path d="M 362.5 391.5 L 365.5 393.5"/>
     <path d="M 369.5 400.5 L 372.5 402.5"/>
     <path d="M 373.5 405.5 L 376.5 407.5"/>
     <path d="M 384.5 419.5 L 387.5 421.5"/>
     <path d="M 388.5 424.5 L 391.5 426.5"/>
     <path d="M 391.5 428.5 L 394.5 430.5"/>
     <path d="M 395.5 433.5 L 399.5 436.5"/>
     <path d="M 399.5 438.5 L 402.5 440.5"/>
     <path d="M 489.5 441.5 L 487.5 444.5"/>
     <path d="M 402.5 442.5 L 405.5 444.5"/>
     <path d="M 405.5 446.5 L 408.5 448.5"/>
     <path d="M 408.5 450.5 L 411.5 452.5"/>
     <path d="M 456.5 464.5 L 436.5 484.5"/>
     <path d="M 436.5 487.5 L 416.5 508.5"/>
     <path d="M 461.5 519.5 L 464.5 521.5"/>
     <path d="M 464.5 523.5 L 467.5 525.5"/>
     <path d="M 383.5 529.5 L 380.5 533.5"/>
     <path d="M 471.5 532.5 L 474.5 534.5"/>
     <path d="M 474.5 536.5 L 477.5 538.5"/>
     <path d="M 477.5 540.5 L 481.5 543.5"/>
     <path d="M 481.5 545.5 L 485.5 548.5"/>
     <path d="M 488.5 554.5 L 491.5 556.5"/>
     <path d="M 495.5 563.5 L 498.5 565.5"/>
     <path d="M 498.5 567.5 L 501.5 569.5"/>
     <path d="M 501.5 571.5 L 504.5 573.5"/>
     <path d="M 508.5 580.5 L 511.5 582.5"/>
     <path d="M 511.5 584.5 L 514.5 586.5"/>
     <path d="M 514.5 588.5 L 517.5 590.5"/>
     <path d="M 517.5 592.5 L 520.5 594.5"/>
     <path d="M 520.5 596.5 L 523.5 598.5"/>
     <path d="M 523.5 600.5 L 526.5 602.5"/>
     <path d="M 526.5 604.5 L 529.5 606.5"/>
     <path d="M 529.5 608.5 L 532.5 610.5"/>
     <path d="M 532.5 612.5 L 535.5 614.5"/>
     <path d="M 539.5 621.5 L 542.5 623.5"/>
     <path d="M 542.5 625.5 L 545.5 627.5"/>
     <path d="M 545.5 629.5 L 548.5 631.5"/>
     <path d="M 548.5 633.5 L 551.5 635.5"/>
     <path d="M 555.5 642.5 L 558.5 644.5"/>
     <path d="M 558.5 646.5 L 561.5 648.5"/>
     <path d="M 562.5 651.5 L 565.5 653.5"/>
     <path d="M 565.5 655.5 L 568.5 657.5"/>
     <path d="M 572.5 664.5 L 575.5 666.5"/>
     <path d="M 576.5 669.5 L 579.5 671.5"/>
     <path d="M 583.5 678.5 L 586.5 680.5"/>
     <path d="M 217.5 679.5 L 214.5 681.5"/>
     <path d="M 587.5 683.5 L 590.5 685.5"/>
     <path d="M 619.5 723.5 L 622.5 725.5"/>
     <path d="M 652.5 764.5 L 655.5 766.5"/>
     <path d="M 664.5 779.5 L 667.5 781.5"/>
     <path d="M 669.5 785.5 L 672.5 787.5"/>
     <path d="M 736.5 810.5 L 732.5 812.5"/>
     <path d="M 733.5 812.5 L 717.5 827.5"/>
     <path d="M 717.5 853.5 L 699.5 872.5"/>
     <path d="M 760.5 897.5 L 764.5 900.5"/>
     <path d="M 765.5 903.5 L 768.5 905.5"/>
     <path d="M 649.5 910.5 L 644.5 913.5"/>
     <path d="M 617.5 932.5 L 613.5 934.5"/>
     <path d="M 257.5 937.5 L 259.5 940.5"/>
     <path d="M 598.5 942.5 L 594.5 944.5"/>
     <path d="M 813.5 963.5 L 816.5 965.5"/>
</g>
</svg>
