<svg xmlns="http://www.w3.org/2000/svg" viewBox="0 0 1024 1024">
<g fill="none" stroke="black" stroke-width="45" stroke-linecap="round" stroke-linejoin="round">
     <path d="M 973.5 144.5 C 868.83 144.33, 461 143.17, 345.5 143.5 C 230 143.83, 291.33 146, 280.5 146.5"/>
     <path d="M 280.5 146.5 L 268.5 150.5"/>
     <path d="M 268.5 150.5 C 267.33 155.17, 262.83 66.5, 261.5 178.5 C 260.17 290.5, 260.67 715.17, 260.5 822.5"/>
     <path d="M 40.5 648.5 C 67.17 675.83, 165.33 782.17, 200.5 812.5 C 235.67 842.83, 241.5 828.83, 251.5 830.5 C 261.5 832.17, 259 823.83, 260.5 822.5"/>
     <path d="M 500.5 655.5 C 470.83 684.5, 361.33 797.67, 322.5 829.5 C 283.67 861.33, 278.33 844.33, 267.5 846.5 C 256.67 848.67, 259.17 843.17, 257.5 842.5"/>
     <path d="M 260.5 822.5 C 259.33 824.17, 254.5 830.33, 253.5 832.5 C 252.5 834.67, 254.33 835, 254.5 835.5"/>
     <path d="M 254.5 835.5 L 257.5 842.5"/>
     <path d="M 174.5 785.5 L 180.5 790.5"/>
     <path d="M 260.5 823.5 L 252.5 830.5"/>
</g>
</svg>
