<svg xmlns="http://www.w3.org/2000/svg" viewBox="0 0 1024 1024">
<g fill="none" stroke="black" stroke-width="45" stroke-linecap="round" stroke-linejoin="round">
     <path d="M 189.5 67.5 L 247.5 80.5"/>
     <path d="M 189.5 67.5 C 188.67 68.17, 185.33 -53.5, 184.5 71.5 C 183.67 196.5, 183.5 692.17, 184.5 817.5 C 185.5 942.83, 189.5 822.5, 190.5 823.5"/>
     <path d="M 247.5 80.5 C 337.5 139.17, 695 368.5, 787.5 432.5 C 880 496.5, 795.5 458.67, 802.5 464.5 C 809.5 470.33, 825 467, 829.5 467.5"/>
     <path d="M 802.5 464.5 C 800.83 467.83, 795.67 480.33, 792.5 484.5 C 789.33 488.67, 785 488.67, 783.5 489.5"/>
     <path d="M 773.5 493.5 L 763.5 497.5"/>
     <path d="M 748.5 503.5 L 733.5 509.5"/>
     <path d="M 723.5 513.5 L 649.5 542.5"/>
     <path d="M 649.5 542.5 L 639.5 546.5"/>
     <path d="M 639.5 546.5 L 614.5 556.5"/>
     <path d="M 609.5 558.5 C 607.67 561.33, 598.83 566.17, 598.5 575.5 C 598.17 584.83, 606 608, 607.5 614.5"/>
     <path d="M 607.5 614.5 C 628.83 649.67, 712.67 787.17, 735.5 825.5 C 758.33 863.83, 742 836.83, 744.5 844.5 C 747 852.17, 749.83 865.83, 750.5 871.5 C 751.17 877.17, 748.83 877.33, 748.5 878.5"/>
     <path d="M 405.5 688.5 C 400.17 690.17, 380.67 695.33, 373.5 698.5 C 366.33 701.67, 364.33 706, 362.5 707.5"/>
     <path d="M 405.5 688.5 C 408.67 690.17, 394.67 653.5, 424.5 698.5 C 454.33 743.5, 555.33 914, 584.5 958.5 C 613.67 1003, 591.67 965.5, 599.5 965.5 C 607.33 965.5, 607.5 971.17, 631.5 958.5 C 655.5 945.83, 724.83 901, 743.5 889.5"/>
     <path d="M 424.5 698.5 C 450.67 741.67, 581.5 957.5, 581.5 957.5 C 581.5 957.5, 450.67 741.67, 424.5 698.5"/>
     <path d="M 356.5 712.5 L 299.5 761.5"/>
     <path d="M 293.5 766.5 L 279.5 778.5"/>
     <path d="M 267.5 788.5 L 253.5 800.5"/>
     <path d="M 247.5 805.5 L 190.5 823.5"/>
     <path d="M 190.5 823.5 L 185.5 848.5"/>
     <path d="M 748.5 878.5 L 743.5 889.5"/>
     <path d="M 773.5 493.5 L 768.5 495.5"/>
     <path d="M 748.5 503.5 L 738.5 507.5"/>
     <path d="M 723.5 513.5 L 700.5 522.5"/>
     <path d="M 695.5 524.5 L 654.5 540.5"/>
     <path d="M 649.5 542.5 L 644.5 544.5"/>
     <path d="M 639.5 546.5 L 634.5 548.5"/>
     <path d="M 629.5 550.5 L 619.5 554.5"/>
     <path d="M 607.5 559.5 L 604.5 561.5"/>
     <path d="M 356.5 712.5 L 353.5 716.5"/>
     <path d="M 267.5 788.5 L 265.5 791.5"/>
     <path d="M 742.5 891.5 L 737.5 894.5"/>
     <path d="M 733.5 897.5 L 727.5 900.5"/>
     <path d="M 728.5 900.5 L 724.5 902.5"/>
     <path d="M 720.5 905.5 L 716.5 907.5"/>
     <path d="M 717.5 907.5 L 711.5 910.5"/>
     <path d="M 712.5 910.5 L 708.5 912.5"/>
     <path d="M 707.5 913.5 L 703.5 915.5"/>
     <path d="M 702.5 916.5 L 698.5 918.5"/>
     <path d="M 699.5 918.5 L 693.5 921.5"/>
     <path d="M 694.5 921.5 L 688.5 924.5"/>
     <path d="M 689.5 924.5 L 683.5 927.5"/>
     <path d="M 684.5 927.5 L 678.5 930.5"/>
     <path d="M 679.5 930.5 L 673.5 933.5"/>
     <path d="M 674.5 933.5 L 668.5 936.5"/>
     <path d="M 669.5 936.5 L 663.5 939.5"/>
     <path d="M 662.5 940.5 L 658.5 942.5"/>
     <path d="M 657.5 943.5 L 653.5 945.5"/>
     <path d="M 647.5 949.5 L 643.5 951.5"/>
     <path d="M 642.5 952.5 L 638.5 954.5"/>
</g>
</svg>
