<svg xmlns="http://www.w3.org/2000/svg" viewBox="0 0 1024 1024">
<g fill="none" stroke="black" stroke-width="45" stroke-linecap="round" stroke-linejoin="round">
     <path d="M 284.5 51.5 C 284.5 125.17, 283.83 419.17, 284.5 493.5 C 285.17 567.83, 287.83 496.83, 288.5 497.5"/>
     <path d="M 710.5 247.5 C 663.67 277.5, 479.5 395.17, 429.5 427.5 C 379.5 459.83, 414.33 437.5, 410.5 441.5 C 406.67 445.5, 407.17 449.83, 406.5 451.5"/>
     <path d="M 400.5 464.5 L 354.5 475.5"/>
     <path d="M 400.5 464.5 C 401.67 465.67, 405.5 467.5, 407.5 471.5 C 409.5 475.5, 411.67 485.67, 412.5 488.5"/>
     <path d="M 354.5 475.5 C 352 477.17, 350.5 481.83, 339.5 485.5 C 328.5 489.17, 297 495.5, 288.5 497.5"/>
     <path d="M 415.5 492.5 L 420.5 499.5"/>
     <path d="M 286.5 502.5 L 284.5 968.5"/>
     <path d="M 423.5 503.5 L 433.5 517.5"/>
     <path d="M 436.5 521.5 L 446.5 535.5"/>
     <path d="M 449.5 539.5 L 459.5 553.5"/>
     <path d="M 462.5 557.5 L 472.5 571.5"/>
     <path d="M 475.5 575.5 L 485.5 589.5"/>
     <path d="M 488.5 593.5 L 498.5 607.5"/>
     <path d="M 501.5 611.5 L 511.5 625.5"/>
     <path d="M 514.5 629.5 L 524.5 643.5"/>
     <path d="M 527.5 647.5 L 537.5 661.5"/>
     <path d="M 540.5 665.5 L 545.5 672.5"/>
     <path d="M 548.5 676.5 L 558.5 690.5"/>
     <path d="M 561.5 694.5 L 571.5 708.5"/>
     <path d="M 574.5 712.5 L 584.5 726.5"/>
     <path d="M 587.5 730.5 L 597.5 744.5"/>
     <path d="M 600.5 748.5 L 610.5 762.5"/>
     <path d="M 613.5 766.5 L 623.5 780.5"/>
     <path d="M 626.5 784.5 L 636.5 798.5"/>
     <path d="M 639.5 802.5 L 649.5 816.5"/>
     <path d="M 652.5 820.5 L 662.5 834.5"/>
     <path d="M 665.5 838.5 L 675.5 852.5"/>
     <path d="M 678.5 856.5 L 688.5 870.5"/>
     <path d="M 691.5 874.5 L 701.5 888.5"/>
     <path d="M 704.5 892.5 L 714.5 906.5"/>
     <path d="M 717.5 910.5 L 722.5 917.5"/>
     <path d="M 725.5 921.5 L 735.5 935.5"/>
     <path d="M 738.5 939.5 L 748.5 953.5"/>
     <path d="M 751.5 957.5 L 763.5 973.5"/>
     <path d="M 706.5 250.5 L 702.5 252.5"/>
     <path d="M 692.5 259.5 L 688.5 261.5"/>
     <path d="M 667.5 275.5 L 663.5 277.5"/>
     <path d="M 628.5 300.5 L 624.5 302.5"/>
     <path d="M 589.5 325.5 L 585.5 327.5"/>
     <path d="M 564.5 341.5 L 560.5 343.5"/>
     <path d="M 550.5 350.5 L 546.5 352.5"/>
     <path d="M 525.5 366.5 L 521.5 368.5"/>
     <path d="M 511.5 375.5 L 507.5 377.5"/>
     <path d="M 486.5 391.5 L 482.5 393.5"/>
     <path d="M 447.5 416.5 L 443.5 418.5"/>
     <path d="M 422.5 432.5 L 418.5 434.5"/>
</g>
</svg>
