<svg xmlns="http://www.w3.org/2000/svg" viewBox="0 0 1024 1024">
<g fill="none" stroke="black" stroke-width="45" stroke-linecap="round" stroke-linejoin="round">
     <path d="M 573.5 49.5 C 562.5 48.67, 528.5 44, 507.5 44.5 C 486.5 45, 457.5 51.17, 447.5 52.5"/>
     <path d="M 580.5 51.5 L 605.5 58.5"/>
     <path d="M 447.5 52.5 L 437.5 54.5"/>
     <path d="M 437.5 54.5 L 425.5 58.5"/>
     <path d="M 418.5 60.5 L 403.5 66.5"/>
     <path d="M 612.5 61.5 C 615.67 62.83, 623.33 65, 631.5 69.5 C 639.67 74, 651.67 80.67, 661.5 88.5 C 671.33 96.33, 685.67 111.83, 690.5 116.5"/>
     <path d="M 403.5 66.5 L 393.5 70.5"/>
     <path d="M 393.5 70.5 C 387.5 73.83, 370 81.67, 357.5 90.5 C 345 99.33, 325 118, 318.5 123.5"/>
     <path d="M 329.5 112.5 C 326 116.33, 314.67 127.33, 308.5 135.5 C 302.33 143.67, 295.17 157.17, 292.5 161.5"/>
     <path d="M 697.5 125.5 C 702 133.67, 718.33 161.17, 724.5 174.5 C 730.67 187.83, 731.67 194.17, 734.5 205.5 C 737.33 216.83, 739.83 229.5, 741.5 242.5 C 743.17 255.5, 744.5 269.83, 744.5 283.5 C 744.5 297.17, 743.17 312.17, 741.5 324.5 C 739.83 336.83, 737.17 348.33, 734.5 357.5 C 731.83 366.67, 727 375.83, 725.5 379.5"/>
     <path d="M 292.5 161.5 L 283.5 183.5"/>
     <path d="M 725.5 379.5 L 721.5 388.5"/>
     <path d="M 721.5 388.5 C 717.83 394, 708.33 411.33, 699.5 421.5 C 690.67 431.67, 673.67 444.83, 668.5 449.5"/>
     <path d="M 664.5 452.5 C 662 454.33, 657.83 458.83, 649.5 463.5 C 641.17 468.17, 620.33 477.67, 614.5 480.5"/>
     <path d="M 609.5 483.5 C 606.17 487.67, 608 504.33, 589.5 508.5 C 571 512.67, 513.67 508.5, 498.5 508.5"/>
     <path d="M 609.5 483.5 C 607.17 488, 595.33 502.17, 595.5 510.5 C 595.67 518.83, 604.17 528.17, 610.5 533.5 C 616.83 538.83, 629.67 541, 633.5 542.5"/>
     <path d="M 633.5 542.5 C 638.5 545.17, 652.83 551.67, 663.5 558.5 C 674.17 565.33, 687.67 575, 697.5 583.5 C 707.33 592, 714.67 598.83, 722.5 609.5 C 730.33 620.17, 740.83 641.17, 744.5 647.5"/>
     <path d="M 746.5 653.5 C 748 659, 753.33 675.17, 755.5 686.5 C 757.67 697.83, 759 708.33, 759.5 721.5 C 760 734.67, 759.5 752.83, 758.5 765.5 C 757.5 778.17, 754.33 792.17, 753.5 797.5"/>
     <path d="M 752.5 803.5 C 750.83 808.83, 747.67 824, 742.5 835.5 C 737.33 847, 729.67 861, 721.5 872.5 C 713.33 884, 702.67 895.33, 693.5 904.5 C 684.33 913.67, 671 923.67, 666.5 927.5"/>
     <path d="M 263.5 817.5 C 265 822.5, 269.67 840, 272.5 847.5 C 275.33 855, 275.83 855.67, 280.5 862.5 C 285.17 869.33, 292.5 879.83, 300.5 888.5 C 308.5 897.17, 323.83 910.17, 328.5 914.5"/>
     <path d="M 336.5 920.5 L 379.5 946.5"/>
     <path d="M 662.5 930.5 C 659 933, 648.17 941.5, 641.5 945.5 C 634.83 949.5, 625.67 953, 622.5 954.5"/>
     <path d="M 379.5 946.5 L 398.5 955.5"/>
     <path d="M 622.5 954.5 L 609.5 960.5"/>
     <path d="M 403.5 957.5 C 410.5 959.83, 433.83 968.33, 445.5 971.5 C 457.17 974.67, 462 975.17, 473.5 976.5 C 485 977.83, 500 979.83, 514.5 979.5 C 529 979.17, 552.83 975.33, 560.5 974.5"/>
     <path d="M 609.5 960.5 L 590.5 967.5"/>
     <path d="M 590.5 967.5 L 575.5 971.5"/>
     <path d="M 575.5 971.5 L 560.5 974.5"/>
     <path d="M 393.5 70.5 L 389.5 72.5"/>
     <path d="M 374.5 80.5 L 370.5 82.5"/>
     <path d="M 355.5 92.5 L 351.5 94.5"/>
     <path d="M 673.5 98.5 L 685.5 110.5"/>
     <path d="M 692.5 429.5 L 686.5 435.5"/>
     <path d="M 662.5 454.5 L 658.5 456.5"/>
     <path d="M 643.5 466.5 L 637.5 469.5"/>
     <path d="M 704.5 589.5 L 711.5 596.5"/>
     <path d="M 702.5 895.5 L 694.5 902.5"/>
     <path d="M 316.5 903.5 L 318.5 906.5"/>
     <path d="M 688.5 908.5 L 683.5 914.5"/>
     <path d="M 662.5 930.5 L 659.5 932.5"/>
     <path d="M 660.5 932.5 L 656.5 934.5"/>
     <path d="M 638.5 946.5 L 634.5 948.5"/>
</g>
</svg>
