<svg xmlns="http://www.w3.org/2000/svg" viewBox="0 0 1024 1024">
<g fill="none" stroke="black" stroke-width="45" stroke-linecap="round" stroke-linejoin="round">
     <path d="M 496.5 54.5 C 505.67 53.33, 536.5 48.17, 551.5 47.5 C 566.5 46.83, 575.5 48.83, 586.5 50.5 C 597.5 52.17, 606.5 53.83, 617.5 57.5 C 628.5 61.17, 646.67 70, 652.5 72.5"/>
     <path d="M 496.5 54.5 L 486.5 57.5"/>
     <path d="M 486.5 57.5 L 466.5 64.5"/>
     <path d="M 466.5 64.5 L 453.5 69.5"/>
     <path d="M 453.5 69.5 L 439.5 76.5"/>
     <path d="M 652.5 72.5 L 693.5 99.5"/>
     <path d="M 439.5 76.5 L 419.5 87.5"/>
     <path d="M 414.5 90.5 L 380.5 114.5"/>
     <path d="M 704.5 108.5 L 743.5 148.5"/>
     <path d="M 376.5 117.5 C 369.5 124.67, 345.33 147.83, 334.5 160.5 C 323.67 173.17, 318.67 181.33, 311.5 193.5 C 304.33 205.67, 298.17 216.83, 291.5 233.5 C 284.83 250.17, 277.5 268, 271.5 293.5 C 265.5 319, 259 357.67, 255.5 386.5 C 252 415.33, 251.33 442.83, 250.5 466.5 C 249.67 490.17, 248.33 516, 250.5 528.5 C 252.67 541, 261.33 539.33, 263.5 541.5"/>
     <path d="M 747.5 153.5 L 757.5 167.5"/>
     <path d="M 453.5 404.5 C 457.83 403.67, 467.33 400.83, 479.5 399.5 C 491.67 398.17, 511.17 396.33, 526.5 396.5 C 541.83 396.67, 557.67 398.33, 571.5 400.5 C 585.33 402.67, 603.17 408, 609.5 409.5"/>
     <path d="M 453.5 404.5 L 436.5 409.5"/>
     <path d="M 436.5 409.5 L 418.5 416.5"/>
     <path d="M 616.5 411.5 L 639.5 420.5"/>
     <path d="M 418.5 416.5 L 404.5 423.5"/>
     <path d="M 639.5 420.5 L 650.5 426.5"/>
     <path d="M 404.5 423.5 L 367.5 449.5"/>
     <path d="M 650.5 426.5 L 680.5 445.5"/>
     <path d="M 369.5 446.5 C 362.33 453.83, 337.17 478.17, 326.5 490.5 C 315.83 502.83, 309.67 515.33, 305.5 520.5 C 301.33 525.67, 302.17 521.33, 301.5 521.5"/>
     <path d="M 684.5 448.5 C 690.33 454.33, 710.33 472.67, 719.5 483.5 C 728.67 494.33, 733.33 502.5, 739.5 513.5 C 745.67 524.5, 751.33 536, 756.5 549.5 C 761.67 563, 766.83 579, 770.5 594.5 C 774.17 610, 776.67 625.33, 778.5 642.5 C 780.33 659.67, 782 678.5, 781.5 697.5 C 781 716.5, 779.17 737.83, 775.5 756.5 C 771.83 775.17, 762.17 800.67, 759.5 809.5"/>
     <path d="M 301.5 521.5 L 263.5 541.5"/>
     <path d="M 263.5 541.5 C 261.5 556.67, 253 607.67, 251.5 632.5 C 250 657.33, 252 666.5, 254.5 690.5 C 257 714.5, 262.17 754.5, 266.5 776.5 C 270.83 798.5, 278.17 814.83, 280.5 822.5"/>
     <path d="M 757.5 814.5 C 754.17 821.67, 744.67 844.67, 737.5 857.5 C 730.33 870.33, 718.33 885.83, 714.5 891.5"/>
     <path d="M 282.5 827.5 C 285.5 833.83, 295 855.67, 300.5 865.5 C 306 875.33, 313 883, 315.5 886.5"/>
     <path d="M 318.5 890.5 C 323.67 895.67, 339 912.83, 349.5 921.5 C 360 930.17, 376.17 939, 381.5 942.5"/>
     <path d="M 710.5 896.5 C 704.33 902.67, 684.33 924.5, 673.5 933.5 C 662.67 942.5, 650.17 947.67, 645.5 950.5"/>
     <path d="M 381.5 942.5 C 389.17 945.67, 409.83 956.33, 427.5 961.5 C 445.17 966.67, 466.83 971.17, 487.5 973.5 C 508.17 975.83, 535.67 975.67, 551.5 975.5 C 567.33 975.33, 572.83 974.17, 582.5 972.5 C 592.17 970.83, 605 966.67, 609.5 965.5"/>
     <path d="M 645.5 950.5 L 617.5 962.5"/>
     <path d="M 617.5 962.5 L 609.5 965.5"/>
     <path d="M 439.5 76.5 L 433.5 79.5"/>
     <path d="M 413.5 91.5 L 409.5 93.5"/>
     <path d="M 410.5 93.5 L 406.5 95.5"/>
     <path d="M 407.5 95.5 L 403.5 97.5"/>
     <path d="M 699.5 103.5 L 701.5 106.5"/>
     <path d="M 705.5 108.5 L 712.5 116.5"/>
     <path d="M 714.5 116.5 L 726.5 128.5"/>
     <path d="M 376.5 117.5 L 374.5 120.5"/>
     <path d="M 372.5 121.5 L 366.5 127.5"/>
     <path d="M 364.5 128.5 L 346.5 145.5"/>
     <path d="M 728.5 132.5 L 736.5 139.5"/>
     <path d="M 737.5 142.5 L 741.5 145.5"/>
     <path d="M 346.5 147.5 L 340.5 152.5"/>
     <path d="M 339.5 155.5 L 336.5 157.5"/>
     <path d="M 418.5 416.5 L 414.5 418.5"/>
     <path d="M 391.5 431.5 L 387.5 433.5"/>
     <path d="M 685.5 448.5 L 687.5 451.5"/>
     <path d="M 365.5 450.5 L 360.5 455.5"/>
     <path d="M 690.5 452.5 L 697.5 460.5"/>
     <path d="M 358.5 456.5 L 338.5 475.5"/>
     <path d="M 703.5 466.5 L 713.5 475.5"/>
     <path d="M 338.5 477.5 L 332.5 482.5"/>
     <path d="M 714.5 478.5 L 717.5 480.5"/>
     <path d="M 331.5 485.5 L 328.5 487.5"/>
     <path d="M 301.5 521.5 L 295.5 524.5"/>
     <path d="M 277.5 533.5 L 267.5 538.5"/>
     <path d="M 318.5 891.5 L 322.5 894.5"/>
     <path d="M 322.5 896.5 L 341.5 915.5"/>
     <path d="M 710.5 897.5 L 707.5 899.5"/>
     <path d="M 706.5 902.5 L 698.5 909.5"/>
     <path d="M 344.5 916.5 L 346.5 919.5"/>
     <path d="M 688.5 919.5 L 682.5 926.5"/>
     <path d="M 661.5 941.5 L 657.5 943.5"/>
</g>
</svg>
